<svg xmlns="http://www.w3.org/2000/svg" viewBox="0 0 64 64" width="64" height="64">
  <defs>
    <linearGradient id="g" x1="0" y1="0" x2="1" y2="1">
      <stop offset="0" stop-color="#1F7A4D"/>
      <stop offset="1" stop-color="#0B3D2E"/>
    </linearGradient>
  </defs>
  <rect width="64" height="64" rx="16" fill="url(#g)"/>
  <path d="M32 13c-7 0-12 5-12 12 0 4 2 7 4 9l-3 12c0 2 2 4 5 4h12c3 0 5-2 5-4l-3-12c2-2 4-5 4-9 0-7-5-12-12-12z" fill="#F7F8F5"/>
  <circle cx="28" cy="24" r="2.6" fill="#0B3D2E"/>
  <path d="M40 23c3-1 6 1 6 4 0 2-2 3-4 3l-4-3z" fill="#E8B923"/>
  <path d="M26 12c0-3 2-5 4-5 1 3 0 6-2 7zM34 12c0-3-2-5-4-5-1 3 0 6 2 7z" fill="#E8B923"/>
</svg>
